<?xml version="1.0" encoding="UTF-8" standalone="no"?>
<!DOCTYPE svg PUBLIC "-//W3C//DTD SVG 1.1//EN"
 "http://www.w3.org/Graphics/SVG/1.1/DTD/svg11.dtd">
<!-- Generated by graphviz version 5.0.0 (20220707.1540)
 -->
<!-- Title: dependencies Pages: 1 -->
<svg width="1310pt" height="250pt"
 viewBox="0.00 0.00 1310.00 249.80" xmlns="http://www.w3.org/2000/svg" xmlns:xlink="http://www.w3.org/1999/xlink">
<g id="graph0" class="graph" transform="scale(1 1) rotate(0) translate(4 245.8)">
<title>dependencies</title>
<polygon fill="white" stroke="transparent" points="-4,4 -4,-245.8 1306,-245.8 1306,4 -4,4"/>
<text text-anchor="middle" x="651" y="-8.2" font-family="sans-serif" font-size="14.00">dependencies</text>
<g id="clust1" class="cluster">
<title>cluster_AppModule</title>
<polygon fill="none" stroke="black" stroke-dasharray="1,5" points="692,-32.8 692,-233.8 1012,-233.8 1012,-32.8 692,-32.8"/>
</g>
<g id="clust3" class="cluster">
<title>cluster_AppModule_imports</title>
<polygon fill="none" stroke="black" points="700,-40.8 700,-168.8 972,-168.8 972,-40.8 700,-40.8"/>
</g>
<g id="clust7" class="cluster">
<title>cluster_AuthenticationModule</title>
<polygon fill="none" stroke="black" stroke-dasharray="1,5" points="8,-32.8 8,-100.8 514,-100.8 514,-32.8 8,-32.8"/>
</g>
<g id="clust12" class="cluster">
<title>cluster_AuthenticationModule_providers</title>
<polygon fill="none" stroke="black" points="16,-40.8 16,-92.8 506,-92.8 506,-40.8 16,-40.8"/>
</g>
<g id="clust19" class="cluster">
<title>cluster_MovieModule</title>
<polygon fill="none" stroke="black" stroke-dasharray="1,5" points="522,-32.8 522,-100.8 684,-100.8 684,-32.8 522,-32.8"/>
</g>
<g id="clust24" class="cluster">
<title>cluster_MovieModule_providers</title>
<polygon fill="none" stroke="black" points="530,-40.8 530,-92.8 676,-92.8 676,-40.8 530,-40.8"/>
</g>
<g id="clust25" class="cluster">
<title>cluster_UsersModule</title>
<polygon fill="none" stroke="black" stroke-dasharray="1,5" points="1020,-108.8 1020,-176.8 1294,-176.8 1294,-108.8 1020,-108.8"/>
</g>
<g id="clust28" class="cluster">
<title>cluster_UsersModule_exports</title>
<polygon fill="none" stroke="black" points="1176,-116.8 1176,-168.8 1286,-168.8 1286,-116.8 1176,-116.8"/>
</g>
<g id="clust30" class="cluster">
<title>cluster_UsersModule_providers</title>
<polygon fill="none" stroke="black" points="1028,-116.8 1028,-168.8 1168,-168.8 1168,-116.8 1028,-116.8"/>
</g>
<!-- AuthenticationModule -->
<g id="node1" class="node">
<title>AuthenticationModule</title>
<polygon fill="#8dd3c7" stroke="black" points="850.25,-160.8 847.25,-164.8 826.25,-164.8 823.25,-160.8 707.75,-160.8 707.75,-124.8 850.25,-124.8 850.25,-160.8"/>
<text text-anchor="middle" x="779" y="-138.6" font-family="Times,serif" font-size="14.00">AuthenticationModule</text>
</g>
<!-- AppModule -->
<g id="node5" class="node">
<title>AppModule</title>
<polygon fill="#8dd3c7" stroke="black" points="980.66,-225.8 977.66,-229.8 956.66,-229.8 953.66,-225.8 897.34,-225.8 897.34,-189.8 980.66,-189.8 980.66,-225.8"/>
<text text-anchor="middle" x="939" y="-203.6" font-family="Times,serif" font-size="14.00">AppModule</text>
</g>
<!-- AuthenticationModule&#45;&gt;AppModule -->
<g id="edge1" class="edge">
<title>AuthenticationModule&#45;&gt;AppModule</title>
<path fill="none" stroke="black" d="M779,-160.91C779,-180.14 779,-207.8 779,-207.8 779,-207.8 886.96,-207.8 886.96,-207.8"/>
<polygon fill="black" stroke="black" points="886.96,-211.3 896.96,-207.8 886.96,-204.3 886.96,-211.3"/>
</g>
<!-- DatabaseModule -->
<g id="node2" class="node">
<title>DatabaseModule</title>
<polygon fill="#8dd3c7" stroke="black" points="964.36,-84.8 961.36,-88.8 940.36,-88.8 937.36,-84.8 853.64,-84.8 853.64,-48.8 964.36,-48.8 964.36,-84.8"/>
<text text-anchor="middle" x="909" y="-62.6" font-family="Times,serif" font-size="14.00">DatabaseModule</text>
</g>
<!-- DatabaseModule&#45;&gt;AppModule -->
<g id="edge2" class="edge">
<title>DatabaseModule&#45;&gt;AppModule</title>
<path fill="none" stroke="black" d="M964.4,-66.8C970.95,-66.8 975.36,-66.8 975.36,-66.8 975.36,-66.8 975.36,-179.66 975.36,-179.66"/>
<polygon fill="black" stroke="black" points="971.86,-179.66 975.36,-189.66 978.86,-179.66 971.86,-179.66"/>
</g>
<!-- MovieModule -->
<g id="node3" class="node">
<title>MovieModule</title>
<polygon fill="#8dd3c7" stroke="black" points="964.1,-160.8 961.1,-164.8 940.1,-164.8 937.1,-160.8 867.9,-160.8 867.9,-124.8 964.1,-124.8 964.1,-160.8"/>
<text text-anchor="middle" x="916" y="-138.6" font-family="Times,serif" font-size="14.00">MovieModule</text>
</g>
<!-- MovieModule&#45;&gt;AppModule -->
<g id="edge3" class="edge">
<title>MovieModule&#45;&gt;AppModule</title>
<path fill="none" stroke="black" d="M930.61,-160.91C930.61,-160.91 930.61,-179.79 930.61,-179.79"/>
<polygon fill="black" stroke="black" points="927.11,-179.79 930.61,-189.79 934.11,-179.79 927.11,-179.79"/>
</g>
<!-- UsersModule -->
<g id="node4" class="node">
<title>UsersModule</title>
<polygon fill="#8dd3c7" stroke="black" points="835.94,-84.8 832.94,-88.8 811.94,-88.8 808.94,-84.8 744.06,-84.8 744.06,-48.8 835.94,-48.8 835.94,-84.8"/>
<text text-anchor="middle" x="790" y="-62.6" font-family="Times,serif" font-size="14.00">UsersModule</text>
</g>
<!-- UsersModule&#45;&gt;AuthenticationModule -->
<g id="edge5" class="edge">
<title>UsersModule&#45;&gt;AuthenticationModule</title>
<path fill="none" stroke="black" d="M759.52,-84.81C759.52,-84.81 759.52,-114.65 759.52,-114.65"/>
<polygon fill="black" stroke="black" points="756.02,-114.65 759.52,-124.65 763.02,-114.65 756.02,-114.65"/>
</g>
<!-- UsersModule&#45;&gt;MovieModule -->
<g id="edge9" class="edge">
<title>UsersModule&#45;&gt;MovieModule</title>
<path fill="none" stroke="black" d="M790,-84.84C790,-97.36 790,-111.8 790,-111.8 790,-111.8 932.02,-111.8 932.02,-111.8 932.02,-111.8 932.02,-114.77 932.02,-114.77"/>
<polygon fill="black" stroke="black" points="928.52,-114.77 932.02,-124.77 935.52,-114.77 928.52,-114.77"/>
</g>
<!-- UsersModule&#45;&gt;AppModule -->
<g id="edge4" class="edge">
<title>UsersModule&#45;&gt;AppModule</title>
<path fill="none" stroke="black" d="M805.24,-84.91C805.24,-94.7 805.24,-104.8 805.24,-104.8 805.24,-104.8 969.9,-104.8 969.9,-104.8 969.9,-104.8 969.9,-179.39 969.9,-179.39"/>
<polygon fill="black" stroke="black" points="966.4,-179.39 969.9,-189.39 973.4,-179.39 966.4,-179.39"/>
</g>
<!-- UsersService  -->
<g id="node10" class="node">
<title>UsersService </title>
<polygon fill="#fb8072" stroke="black" points="1277.86,-160.8 1184.14,-160.8 1184.14,-124.8 1277.86,-124.8 1277.86,-160.8"/>
<text text-anchor="middle" x="1231" y="-138.6" font-family="Times,serif" font-size="14.00">UsersService </text>
</g>
<!-- UsersModule&#45;&gt;UsersService  -->
<g id="edge11" class="edge">
<title>UsersModule&#45;&gt;UsersService </title>
<path fill="none" stroke="black" stroke-dasharray="5,2" d="M820.48,-84.97C820.48,-88.85 820.48,-91.8 820.48,-91.8 820.48,-91.8 1231,-91.8 1231,-91.8 1231,-91.8 1231,-114.68 1231,-114.68"/>
<polygon fill="black" stroke="black" points="1227.5,-114.68 1231,-124.68 1234.5,-114.68 1227.5,-114.68"/>
</g>
<!-- AuthenticationService -->
<g id="node6" class="node">
<title>AuthenticationService</title>
<ellipse fill="#fdb462" stroke="black" cx="401" cy="-66.8" rx="97.27" ry="18"/>
<text text-anchor="middle" x="401" y="-62.6" font-family="Times,serif" font-size="14.00">AuthenticationService</text>
</g>
<!-- AuthenticationService&#45;&gt;AuthenticationModule -->
<g id="edge6" class="edge">
<title>AuthenticationService&#45;&gt;AuthenticationModule</title>
<path fill="none" stroke="black" d="M401,-85.11C401,-104.95 401,-133.8 401,-133.8 401,-133.8 697.46,-133.8 697.46,-133.8"/>
<polygon fill="black" stroke="black" points="697.46,-137.3 707.46,-133.8 697.46,-130.3 697.46,-137.3"/>
</g>
<!-- JwtStrategy -->
<g id="node7" class="node">
<title>JwtStrategy</title>
<ellipse fill="#fdb462" stroke="black" cx="229" cy="-66.8" rx="56.77" ry="18"/>
<text text-anchor="middle" x="229" y="-62.6" font-family="Times,serif" font-size="14.00">JwtStrategy</text>
</g>
<!-- JwtStrategy&#45;&gt;AuthenticationModule -->
<g id="edge7" class="edge">
<title>JwtStrategy&#45;&gt;AuthenticationModule</title>
<path fill="none" stroke="black" d="M229,-84.81C229,-107.29 229,-142.8 229,-142.8 229,-142.8 697.66,-142.8 697.66,-142.8"/>
<polygon fill="black" stroke="black" points="697.66,-146.3 707.66,-142.8 697.66,-139.3 697.66,-146.3"/>
</g>
<!-- LocalStrategy -->
<g id="node8" class="node">
<title>LocalStrategy</title>
<ellipse fill="#fdb462" stroke="black" cx="89" cy="-66.8" rx="65.4" ry="18"/>
<text text-anchor="middle" x="89" y="-62.6" font-family="Times,serif" font-size="14.00">LocalStrategy</text>
</g>
<!-- LocalStrategy&#45;&gt;AuthenticationModule -->
<g id="edge8" class="edge">
<title>LocalStrategy&#45;&gt;AuthenticationModule</title>
<path fill="none" stroke="black" d="M89,-84.83C89,-109.78 89,-151.8 89,-151.8 89,-151.8 697.43,-151.8 697.43,-151.8"/>
<polygon fill="black" stroke="black" points="697.43,-155.3 707.43,-151.8 697.43,-148.3 697.43,-155.3"/>
</g>
<!-- MovieService -->
<g id="node9" class="node">
<title>MovieService</title>
<ellipse fill="#fdb462" stroke="black" cx="603" cy="-66.8" rx="65.41" ry="18"/>
<text text-anchor="middle" x="603" y="-62.6" font-family="Times,serif" font-size="14.00">MovieService</text>
</g>
<!-- MovieService&#45;&gt;MovieModule -->
<g id="edge10" class="edge">
<title>MovieService&#45;&gt;MovieModule</title>
<path fill="none" stroke="black" d="M603,-84.99C603,-99.98 603,-118.8 603,-118.8 603,-118.8 899.98,-118.8 899.98,-118.8 899.98,-118.8 899.98,-119.38 899.98,-119.38"/>
<polygon fill="black" stroke="black" points="896.48,-114.61 899.98,-124.61 903.48,-114.61 896.48,-114.61"/>
</g>
<!-- UsersService -->
<g id="node11" class="node">
<title>UsersService</title>
<ellipse fill="#fdb462" stroke="black" cx="1098" cy="-142.8" rx="61.97" ry="18"/>
<text text-anchor="middle" x="1098" y="-138.6" font-family="Times,serif" font-size="14.00">UsersService</text>
</g>
<!-- UsersService&#45;&gt;UsersModule -->
<g id="edge12" class="edge">
<title>UsersService&#45;&gt;UsersModule</title>
<path fill="none" stroke="black" d="M1098,-124.65C1098,-112.53 1098,-98.8 1098,-98.8 1098,-98.8 774.76,-98.8 774.76,-98.8 774.76,-98.8 774.76,-95.04 774.76,-95.04"/>
<polygon fill="black" stroke="black" points="778.26,-95.04 774.76,-85.04 771.26,-95.04 778.26,-95.04"/>
</g>
</g>
</svg>
